<?xml version="1.0" encoding="UTF-8"?>
<svg width="600px" height="300px" viewBox="0 0 600 300" version="1.1" xmlns="http://www.w3.org/2000/svg" xmlns:xlink="http://www.w3.org/1999/xlink">
    <!-- Generator: Sketch 56.3 (81716) - https://sketch.com -->
    <title>Group 4</title>
    <desc>Created with Sketch.</desc>
    <defs>
        <polygon id="path-1" points="7.84066209 8.51607073 12.4865478 6.86493774 1.13686838e-13 0 3.64025044 13.7764227 6.3662792 9.66798489 9.63003598 13.8454031 11.1044189 12.6934889"></polygon>
        <filter x="-52.6%" y="-43.3%" width="212.1%" height="203.6%" filterUnits="objectBoundingBox" id="filter-2">
            <feMorphology radius="1" operator="dilate" in="SourceAlpha" result="shadowSpreadOuter1"></feMorphology>
            <feOffset dx="0" dy="1" in="shadowSpreadOuter1" result="shadowOffsetOuter1"></feOffset>
            <feGaussianBlur stdDeviation="1.5" in="shadowOffsetOuter1" result="shadowBlurOuter1"></feGaussianBlur>
            <feComposite in="shadowBlurOuter1" in2="SourceAlpha" operator="out" result="shadowBlurOuter1"></feComposite>
            <feColorMatrix values="0 0 0 0 0   0 0 0 0 0   0 0 0 0 0  0 0 0 0.25 0" type="matrix" in="shadowBlurOuter1"></feColorMatrix>
        </filter>
        <path d="M3.98190975,9.99999992 L3.09529739,8.64532799 C2.48991036,7.72034561 1.20039622,7.38287755 0.214035029,7.88996475 L0.443864811,7.77180951 C0.199079509,7.89765337 0.081702931,8.21138642 0.182488604,8.47214489 L1.40976041,11.6474128 C1.60431817,12.1507837 2.10121802,12.8626937 2.51297222,13.2203156 C2.51297222,13.2203156 4.98190975,15.2638557 4.98190975,16.03003 L4.98190975,16.9999999 L8.98190975,16.9999999 L9.98190975,14.9999999 L10.9819098,16.9999999 L11.9819098,17 L11.9819098,16.0300302 C11.9819098,15.2638559 13.4907506,12.8506759 13.4907506,12.8506759 C13.7684994,12.3815967 14,11.5552351 14,11.0065899 L14,6.9718022 C13.9819097,6.07849828 13.2225759,5.35453877 12.2856231,5.35453877 C11.8168923,5.35453877 11.4372254,5.71651852 11.4372254,6.1634131 L11.4372254,6.48657465 C11.4372254,5.59327073 10.6778916,4.86931122 9.7409389,4.86931122 C9.27220806,4.86931122 8.89254117,5.23129097 8.89254117,5.67818555 L8.89254117,6.0013471 C8.89254117,5.10804318 8.13320739,4.38408367 7.19625465,4.38408367 C6.72752382,4.38408367 6.34785693,4.74606342 6.34785693,5.192958 L6.34785693,5.51611955 C6.34785693,5.37255591 6.33251267,5.25843099 6.30286699,5.16799051 L6.04408993,1.0012141 C6.00909675,0.437760917 5.53419442,0 4.98190967,0 C4.42577449,0 3.98190967,0.447629061 3.98190967,0.999807492 L3.98190967,5 L3.98190975,9.99999992 Z M11,9.00000012 L12,9 L12,12.9999999 L11,13 L11,9.00000012 L11,9.00000012 Z M9,9.00000012 L10,9 L10,12.9999999 L9,13 L9,9.00000012 L9,9.00000012 Z M7,9.00000012 L8,9 L8,12.9999999 L7,13 L7,9.00000012 L7,9.00000012 Z" id="path-3"></path>
        <filter x="-43.3%" y="-29.4%" width="186.6%" height="170.6%" filterUnits="objectBoundingBox" id="filter-4">
            <feMorphology radius="1" operator="dilate" in="SourceAlpha" result="shadowSpreadOuter1"></feMorphology>
            <feOffset dx="0" dy="1" in="shadowSpreadOuter1" result="shadowOffsetOuter1"></feOffset>
            <feGaussianBlur stdDeviation="1.5" in="shadowOffsetOuter1" result="shadowBlurOuter1"></feGaussianBlur>
            <feComposite in="shadowBlurOuter1" in2="SourceAlpha" operator="out" result="shadowBlurOuter1"></feComposite>
            <feColorMatrix values="0 0 0 0 0   0 0 0 0 0   0 0 0 0 0  0 0 0 0.2 0" type="matrix" in="shadowBlurOuter1"></feColorMatrix>
        </filter>
        <path d="M3.98190975,9.99999992 L3.09529739,8.64532799 C2.48991036,7.72034561 1.20039622,7.38287755 0.214035029,7.88996475 L0.443864811,7.77180951 C0.199079509,7.89765337 0.081702931,8.21138642 0.182488604,8.47214489 L1.40976041,11.6474128 C1.60431817,12.1507837 2.10121802,12.8626937 2.51297222,13.2203156 C2.51297222,13.2203156 4.98190975,15.2638557 4.98190975,16.03003 L4.98190975,16.9999999 L8.98190975,16.9999999 L9.98190975,14.9999999 L10.9819098,16.9999999 L11.9819098,17 L11.9819098,16.0300302 C11.9819098,15.2638559 13.4907506,12.8506759 13.4907506,12.8506759 C13.7684994,12.3815967 14,11.5552351 14,11.0065899 L14,6.9718022 C13.9819097,6.07849828 13.2225759,5.35453877 12.2856231,5.35453877 C11.8168923,5.35453877 11.4372254,5.71651852 11.4372254,6.1634131 L11.4372254,6.48657465 C11.4372254,5.59327073 10.6778916,4.86931122 9.7409389,4.86931122 C9.27220806,4.86931122 8.89254117,5.23129097 8.89254117,5.67818555 L8.89254117,6.0013471 C8.89254117,5.10804318 8.13320739,4.38408367 7.19625465,4.38408367 C6.72752382,4.38408367 6.34785693,4.74606342 6.34785693,5.192958 L6.34785693,5.51611955 C6.34785693,5.37255591 6.33251267,5.25843099 6.30286699,5.16799051 L6.04408993,1.0012141 C6.00909675,0.437760917 5.53419442,0 4.98190967,0 C4.42577449,0 3.98190967,0.447629061 3.98190967,0.999807492 L3.98190967,5 L3.98190975,9.99999992 Z M11,9.00000012 L12,9 L12,12.9999999 L11,13 L11,9.00000012 L11,9.00000012 Z M9,9.00000012 L10,9 L10,12.9999999 L9,13 L9,9.00000012 L9,9.00000012 Z M7,9.00000012 L8,9 L8,12.9999999 L7,13 L7,9.00000012 L7,9.00000012 Z" id="path-5"></path>
        <filter x="-43.3%" y="-29.4%" width="186.6%" height="170.6%" filterUnits="objectBoundingBox" id="filter-6">
            <feMorphology radius="1" operator="dilate" in="SourceAlpha" result="shadowSpreadOuter1"></feMorphology>
            <feOffset dx="0" dy="1" in="shadowSpreadOuter1" result="shadowOffsetOuter1"></feOffset>
            <feGaussianBlur stdDeviation="1.5" in="shadowOffsetOuter1" result="shadowBlurOuter1"></feGaussianBlur>
            <feComposite in="shadowBlurOuter1" in2="SourceAlpha" operator="out" result="shadowBlurOuter1"></feComposite>
            <feColorMatrix values="0 0 0 0 0   0 0 0 0 0   0 0 0 0 0  0 0 0 0.2 0" type="matrix" in="shadowBlurOuter1"></feColorMatrix>
        </filter>
        <polygon id="path-7" points="10.5925259 5.08193843 0.413592179 0.457080771 2.82106628 11.3751423 5.7628155 7.06282144"></polygon>
        <filter x="-62.9%" y="-52.6%" width="236.8%" height="230.2%" filterUnits="objectBoundingBox" id="filter-8">
            <feMorphology radius="1" operator="dilate" in="SourceAlpha" result="shadowSpreadOuter1"></feMorphology>
            <feOffset dx="0" dy="1" in="shadowSpreadOuter1" result="shadowOffsetOuter1"></feOffset>
            <feGaussianBlur stdDeviation="1.5" in="shadowOffsetOuter1" result="shadowBlurOuter1"></feGaussianBlur>
            <feComposite in="shadowBlurOuter1" in2="SourceAlpha" operator="out" result="shadowBlurOuter1"></feComposite>
            <feColorMatrix values="0 0 0 0 0   0 0 0 0 0   0 0 0 0 0  0 0 0 0.25 0" type="matrix" in="shadowBlurOuter1"></feColorMatrix>
        </filter>
        <path d="M16.4765344,20.8907479 C15.4957155,21.589209 14.2958304,22 13,22 C9.6862915,22 7,19.3137085 7,16 C7,14.7041696 7.41079097,13.5042845 8.10925208,12.5234656 L16.4765344,20.8907479 L16.4765344,20.8907479 Z M17.8907479,19.4765344 C18.589209,18.4957155 19,17.2958304 19,16 C19,12.6862915 16.3137085,10 13,10 C11.7041696,10 10.5042845,10.410791 9.52346564,11.1092521 L17.8907479,19.4765344 L17.8907479,19.4765344 Z M13,24 C17.418278,24 21,20.418278 21,16 C21,11.581722 17.418278,8 13,8 C8.581722,8 5,11.581722 5,16 C5,20.418278 8.581722,24 13,24 L13,24 Z" id="path-9"></path>
        <filter x="-37.5%" y="-31.2%" width="175.0%" height="175.0%" filterUnits="objectBoundingBox" id="filter-10">
            <feMorphology radius="1" operator="dilate" in="SourceAlpha" result="shadowSpreadOuter1"></feMorphology>
            <feOffset dx="0" dy="1" in="shadowSpreadOuter1" result="shadowOffsetOuter1"></feOffset>
            <feGaussianBlur stdDeviation="1.5" in="shadowOffsetOuter1" result="shadowBlurOuter1"></feGaussianBlur>
            <feComposite in="shadowBlurOuter1" in2="SourceAlpha" operator="out" result="shadowBlurOuter1"></feComposite>
            <feColorMatrix values="0 0 0 0 0   0 0 0 0 0   0 0 0 0 0  0 0 0 0.25 0" type="matrix" in="shadowBlurOuter1"></feColorMatrix>
        </filter>
    </defs>
    <g id="Buttons" stroke="none" stroke-width="1" fill="none" fill-rule="evenodd">
        <g id="A4" transform="translate(-277.000000, -823.000000)">
            <g id="Group-4" transform="translate(277.000000, 823.000000)">
                <g id="Group-Copy-2">
                    <g id="Group-8">
                        <rect id="Rectangle" fill="#F2F4F6" x="0" y="0" width="600" height="300" rx="4"></rect>
                        <rect id="Rectangle" fill="#22A5F7" x="60" y="134" width="80" height="32" rx="4"></rect>
                        <text id="Buttons" font-family="NutanixSoft-Medium, Nutanix Soft" font-size="14" font-weight="400" line-spacing="12" fill="#FFFFFF">
                            <tspan x="76" y="158">Buttons</tspan>
                        </text>
                        <rect id="Rectangle-Copy-11" fill="#BDE4FD" x="360" y="134" width="80" height="32" rx="4"></rect>
                        <text id="Buttons-Copy-3" font-family="NutanixSoft-Medium, Nutanix Soft" font-size="14" font-weight="400" line-spacing="12" fill="#FFFFFF">
                            <tspan x="376" y="158">Buttons</tspan>
                        </text>
                        <rect id="Rectangle-Copy-12" fill="#BDE4FD" x="460" y="134" width="80" height="32" rx="4"></rect>
                        <rect id="Rectangle-Copy-9" fill="#1F88DE" x="160" y="134" width="80" height="32" rx="4"></rect>
                        <text id="Buttons-Copy" font-family="NutanixSoft-Medium, Nutanix Soft" font-size="14" font-weight="400" line-spacing="12" fill="#FFFFFF">
                            <tspan x="176" y="158">Buttons</tspan>
                        </text>
                        <rect id="Rectangle-Copy-10" fill="#1B6DC6" x="260" y="134" width="80" height="32" rx="4"></rect>
                        <text id="Buttons-Copy-2" font-family="NutanixSoft-Medium, Nutanix Soft" font-size="14" font-weight="400" line-spacing="12" fill="#FFFFFF">
                            <tspan x="276" y="158">Buttons</tspan>
                        </text>
                        <g id="Cursor-/-Default" transform="translate(525.000000, 160.000000)">
                            <g id="Rectangle-237">
                                <use fill="black" fill-opacity="1" filter="url(#filter-2)" xlink:href="#path-1"></use>
                                <path stroke-opacity="0.8" stroke="#FFFFFF" stroke-width="1" d="M8.6617598,8.75489325 L11.806255,12.7796636 L9.54386134,14.5472392 L6.39936616,10.5224689 L3.44128728,14.9806328 L-0.781456351,-1.00021852 L13.7031213,6.96320943 L8.6617598,8.75489325 Z" fill="#363B3E" fill-rule="evenodd"></path>
                            </g>
                        </g>
                        <g id="Cursor-/-Pointer" transform="translate(221.000000, 160.000000)">
                            <g id="Imported-Layers-Copy-4">
                                <use fill="black" fill-opacity="1" filter="url(#filter-4)" xlink:href="#path-3"></use>
                                <path stroke-opacity="0.8" stroke="#000000" stroke-width="1" d="M3.48190972,8.32416496 L3.48190967,5 L3.48190967,0.999807491 C3.48190967,0.170429729 4.15068503,-0.5 4.98190967,-0.5 C5.80152555,-0.5 6.49196322,0.146369011 6.54312845,0.970221378 L6.729109,3.96484284 C6.87493261,3.91257008 7.03237962,3.88408367 7.19625465,3.88408367 C7.87883467,3.88408367 8.49131623,4.18500488 8.89495329,4.65876818 C9.12697419,4.47737206 9.42176446,4.36931122 9.7409389,4.36931122 C10.4235189,4.36931122 11.0360005,4.67023243 11.4396375,5.14399573 C11.6716584,4.96259961 11.9664487,4.85453877 12.2856231,4.85453877 C13.4881886,4.85453877 14.4761616,5.78959763 14.5,6.9718022 L14.5,11.0065899 C14.5,11.6413376 14.2462612,12.556081 13.9147021,13.1157516 C13.8694672,13.1880985 13.788913,13.3198554 13.6849071,13.4950007 C13.511352,13.7872659 13.3378324,14.0912197 13.1763581,14.3904728 C13.1037538,14.5250271 13.0351585,14.6557806 12.9712321,14.7818029 C12.6639479,15.3875721 12.4819098,15.8603735 12.4819098,16.0300302 L12.4819098,17.5000001 L10.6728927,17.4999999 L9.98190975,16.1180339 L9.29092675,17.4999999 L4.48190975,17.4999999 L4.48190975,16.03003 C4.48190975,15.9441015 4.22664544,15.5664829 3.80083171,15.1083367 C3.6777582,14.9759181 3.54245432,14.8374578 3.39695629,14.6944531 C3.13416835,14.4361686 2.85142222,14.1758166 2.56855227,13.9270547 C2.39897253,13.7779227 2.26768741,13.6663479 2.1851049,13.5978113 C1.71375103,13.1884251 1.16828661,12.409552 0.943384241,11.8276717 L-0.28388756,8.65240379 C-0.444283002,8.23741952 -0.319449182,7.76260422 0.000730716832,7.47505565 L-0.0145732772,7.44528707 C0.0327844808,7.42094049 0.0806824543,7.39816945 0.129050684,7.37695571 C0.156751662,7.359073 0.18549978,7.34242973 0.215256505,7.32713183 L0.221175841,7.33864583 C1.37808265,6.88340881 2.77316135,7.29220176 3.48190972,8.32416496 Z M0.000730716832,7.47505565 C0.0405415491,7.43930216 0.0833724658,7.40644385 0.129050684,7.37695571 C0.159577614,7.36356695 0.190291862,7.35079852 0.221175841,7.33864583 L0.672473117,8.2164872 L0.442643335,8.33464243 L0.000730716832,7.47505565 Z M11.5,11 L11.5,12.9999999 L11.9999999,12.4999999 L10.9999999,12.5 L11.5,13 L11.5,11 Z M11.5,11 L11.5,9.00000012 L11.0000001,9.50000012 L12.0000001,9.5 L11.5,9 L11.5,11 Z M9.5,11 L9.5,12.9999999 L9.99999994,12.4999999 L8.99999994,12.5 L9.5,13 L9.5,11 Z M9.5,11 L9.5,9.00000012 L9.00000006,9.50000012 L10.0000001,9.5 L9.5,9 L9.5,11 Z M7.5,11 L7.5,12.9999999 L7.99999994,12.4999999 L6.99999994,12.5 L7.5,13 L7.5,11 Z M7.5,11 L7.5,9.00000012 L7.00000006,9.50000012 L8.00000006,9.5 L7.5,9 L7.5,11 Z" fill="#FFFFFF" fill-rule="evenodd"></path>
                            </g>
                        </g>
                        <g id="Cursor-/-Pointer" transform="translate(326.000000, 160.000000)">
                            <g id="Imported-Layers-Copy-4">
                                <use fill="black" fill-opacity="1" filter="url(#filter-6)" xlink:href="#path-5"></use>
                                <path stroke-opacity="0.8" stroke="#000000" stroke-width="1" d="M3.48190972,8.32416496 L3.48190967,5 L3.48190967,0.999807491 C3.48190967,0.170429729 4.15068503,-0.5 4.98190967,-0.5 C5.80152555,-0.5 6.49196322,0.146369011 6.54312845,0.970221378 L6.729109,3.96484284 C6.87493261,3.91257008 7.03237962,3.88408367 7.19625465,3.88408367 C7.87883467,3.88408367 8.49131623,4.18500488 8.89495329,4.65876818 C9.12697419,4.47737206 9.42176446,4.36931122 9.7409389,4.36931122 C10.4235189,4.36931122 11.0360005,4.67023243 11.4396375,5.14399573 C11.6716584,4.96259961 11.9664487,4.85453877 12.2856231,4.85453877 C13.4881886,4.85453877 14.4761616,5.78959763 14.5,6.9718022 L14.5,11.0065899 C14.5,11.6413376 14.2462612,12.556081 13.9147021,13.1157516 C13.8694672,13.1880985 13.788913,13.3198554 13.6849071,13.4950007 C13.511352,13.7872659 13.3378324,14.0912197 13.1763581,14.3904728 C13.1037538,14.5250271 13.0351585,14.6557806 12.9712321,14.7818029 C12.6639479,15.3875721 12.4819098,15.8603735 12.4819098,16.0300302 L12.4819098,17.5000001 L10.6728927,17.4999999 L9.98190975,16.1180339 L9.29092675,17.4999999 L4.48190975,17.4999999 L4.48190975,16.03003 C4.48190975,15.9441015 4.22664544,15.5664829 3.80083171,15.1083367 C3.6777582,14.9759181 3.54245432,14.8374578 3.39695629,14.6944531 C3.13416835,14.4361686 2.85142222,14.1758166 2.56855227,13.9270547 C2.39897253,13.7779227 2.26768741,13.6663479 2.1851049,13.5978113 C1.71375103,13.1884251 1.16828661,12.409552 0.943384241,11.8276717 L-0.28388756,8.65240379 C-0.444283002,8.23741952 -0.319449182,7.76260422 0.000730716832,7.47505565 L-0.0145732772,7.44528707 C0.0327844808,7.42094049 0.0806824543,7.39816945 0.129050684,7.37695571 C0.156751662,7.359073 0.18549978,7.34242973 0.215256505,7.32713183 L0.221175841,7.33864583 C1.37808265,6.88340881 2.77316135,7.29220176 3.48190972,8.32416496 Z M0.000730716832,7.47505565 C0.0405415491,7.43930216 0.0833724658,7.40644385 0.129050684,7.37695571 C0.159577614,7.36356695 0.190291862,7.35079852 0.221175841,7.33864583 L0.672473117,8.2164872 L0.442643335,8.33464243 L0.000730716832,7.47505565 Z M11.5,11 L11.5,12.9999999 L11.9999999,12.4999999 L10.9999999,12.5 L11.5,13 L11.5,11 Z M11.5,11 L11.5,9.00000012 L11.0000001,9.50000012 L12.0000001,9.5 L11.5,9 L11.5,11 Z M9.5,11 L9.5,12.9999999 L9.99999994,12.4999999 L8.99999994,12.5 L9.5,13 L9.5,11 Z M9.5,11 L9.5,9.00000012 L9.00000006,9.50000012 L10.0000001,9.5 L9.5,9 L9.5,11 Z M7.5,11 L7.5,12.9999999 L7.99999994,12.4999999 L6.99999994,12.5 L7.5,13 L7.5,11 Z M7.5,11 L7.5,9.00000012 L7.00000006,9.50000012 L8.00000006,9.5 L7.5,9 L7.5,11 Z" fill="#FFFFFF" fill-rule="evenodd"></path>
                            </g>
                        </g>
                        <g id="Cursor-/-Not-Allowed" transform="translate(422.000000, 160.000000)">
                            <g id="Rectangle-237">
                                <use fill="black" fill-opacity="1" filter="url(#filter-8)" xlink:href="#path-7"></use>
                                <path stroke-opacity="0.8" stroke="#FFFFFF" stroke-width="1" d="M6.09133039,7.46850355 L2.58197955,12.6128737 L-0.290009408,-0.411794828 L11.8529188,5.10541514 L6.09133039,7.46850355 Z" fill="#363B3E" fill-rule="evenodd"></path>
                            </g>
                            <g id="Oval-3">
                                <use fill="black" fill-opacity="1" filter="url(#filter-10)" xlink:href="#path-9"></use>
                                <path stroke-opacity="0.8" stroke="#FFFFFF" stroke-width="1" d="M15.681839,20.8031593 L8.19684071,13.318161 C7.74342411,14.1280902 7.5,15.0453071 7.5,16 C7.5,19.0375661 9.96243388,21.5 13,21.5 C13.9546929,21.5 14.8719098,21.2565759 15.681839,20.8031593 Z M17.8031593,18.681839 C18.2565759,17.8719098 18.5,16.9546929 18.5,16 C18.5,12.9624339 16.0375661,10.5 13,10.5 C12.0453071,10.5 11.1280902,10.7434241 10.318161,11.1968407 L17.8031593,18.681839 Z M13,24.5 C8.30557963,24.5 4.5,20.6944204 4.5,16 C4.5,11.3055796 8.30557963,7.5 13,7.5 C17.6944204,7.5 21.5,11.3055796 21.5,16 C21.5,20.6944204 17.6944204,24.5 13,24.5 Z" fill="#363B3E" fill-rule="evenodd"></path>
                            </g>
                        </g>
                        <path d="M496.339823,148.880224 C495.43485,148.633845 495.246763,149.445523 495.246763,149.445523 C495.083879,149.943813 495,150.467132 495,151 C495,153.761424 497.238576,156 500,156 C502.761424,156 505,153.761424 505,151 C505,148.238576 502.761424,146 500,146 C498.946265,146 497.808889,146.273946 496.998444,146.969493 C497.109222,147.181488 497.29538,147.322886 498.095159,148.264218 C498.635113,147.887546 499.291762,147.666667 500,147.666667 C501.840949,147.666667 503.333333,149.159051 503.333333,151 C503.333333,152.840949 501.840949,154.333333 500,154.333333 C498.159051,154.333333 496.666667,152.840949 496.666667,151 C496.666667,150.638112 496.724336,150.289693 496.830987,149.963432 C496.830987,149.963432 497.061284,149.168488 496.339823,148.880224 Z" id="Oval-Copy" fill="" fill-rule="nonzero" transform="translate(500.000000, 151.000000) rotate(-360.000000) translate(-500.000000, -151.000000) "></path>
                    </g>
                </g>
            </g>
        </g>
    </g>
</svg>